<?xml version="1.0" encoding="iso-8859-1"?>
<!-- Generator: Adobe Illustrator 19.0.0, SVG Export Plug-In . SVG Version: 6.00 Build 0)  -->
<svg xmlns="http://www.w3.org/2000/svg" xmlns:xlink="http://www.w3.org/1999/xlink" version="1.1" id="Capa_1" x="0px" y="0px" viewBox="0 0 512 512" style="enable-background:new 0 0 512 512;" xml:space="preserve" width="512px" height="512px">
<g>
	<g>
		<path d="M444.578,0c-4.2,0-7.604,3.405-7.604,7.604v35.758c0,4.199,3.405,7.604,7.604,7.604c4.2,0,7.604-3.405,7.604-7.604V7.604    C452.182,3.405,448.779,0,444.578,0z" fill="#FFFFFF"/>
	</g>
</g>
<g>
	<g>
		<path d="M504.396,59.818H138.395c-4.199,0-7.604,3.405-7.604,7.604c0,4.199,3.404,7.604,7.604,7.604h366.001    c4.2,0,7.604-3.405,7.604-7.604C512,63.222,508.596,59.818,504.396,59.818z" fill="#FFFFFF"/>
	</g>
</g>
<g>
	<g>
		<path d="M504.396,436.974h-52.214V89.999c0-4.199-3.404-7.604-7.604-7.604s-7.604,3.405-7.604,7.604v346.975H75.026V75.026h38.022    c4.199,0,7.604-3.405,7.604-7.604c0-4.199-3.405-7.604-7.604-7.604H75.026V7.604C75.026,3.405,71.621,0,67.422,0    c-4.199,0-7.604,3.405-7.604,7.604v52.214H7.604C3.405,59.818,0,63.222,0,67.422c0,4.199,3.405,7.604,7.604,7.604h52.214v361.948    H7.604c-4.199,0-7.604,3.405-7.604,7.604s3.405,7.604,7.604,7.604h52.214v52.214c0,4.199,3.405,7.604,7.604,7.604    c4.199,0,7.604-3.405,7.604-7.604v-52.214h361.948v52.214c0,4.199,3.404,7.604,7.604,7.604s7.604-3.405,7.604-7.604v-52.214    h52.214c4.2,0,7.604-3.405,7.604-7.604S508.596,436.974,504.396,436.974z" fill="#FFFFFF"/>
	</g>
</g>
<g>
	<g>
		<path d="M408.546,95.85H103.454c-4.199,0-7.604,3.405-7.604,7.604v305.092c0,4.199,3.405,7.604,7.604,7.604h213.38    c4.2,0,7.604-3.405,7.604-7.604c0-4.199-3.404-7.604-7.604-7.604H111.058V111.058h289.883v289.884h-58.758    c-4.2,0-7.604,3.405-7.604,7.604c0,4.199,3.405,7.604,7.604,7.604h66.362c4.2,0,7.604-3.405,7.604-7.604V103.454    C416.15,99.255,412.746,95.85,408.546,95.85z" fill="#FFFFFF"/>
	</g>
</g>
<g>
	<g>
		<path d="M388.249,377.495L266.754,256l121.494-121.494c2.97-2.97,2.97-7.783,0-10.753c-2.971-2.97-7.784-2.97-10.754,0    L256,245.247L134.506,123.753c-2.97-2.97-7.784-2.97-10.753,0c-2.97,2.97-2.97,7.783,0,10.753L245.247,256L123.753,377.494    c-2.97,2.97-2.97,7.784,0,10.754c1.484,1.484,3.431,2.227,5.377,2.227c1.946,0,3.892-0.742,5.376-2.227L256,266.754    l121.494,121.494c1.485,1.484,3.432,2.227,5.378,2.227s3.892-0.742,5.378-2.227C391.219,385.279,391.219,380.464,388.249,377.495z    " fill="#FFFFFF"/>
	</g>
</g>
<g>
</g>
<g>
</g>
<g>
</g>
<g>
</g>
<g>
</g>
<g>
</g>
<g>
</g>
<g>
</g>
<g>
</g>
<g>
</g>
<g>
</g>
<g>
</g>
<g>
</g>
<g>
</g>
<g>
</g>
</svg>
