<?xml version="1.0" encoding="iso-8859-1"?>
<!-- Generator: Adobe Illustrator 19.0.0, SVG Export Plug-In . SVG Version: 6.00 Build 0)  -->
<svg version="1.1" id="Capa_1" xmlns="http://www.w3.org/2000/svg" xmlns:xlink="http://www.w3.org/1999/xlink" x="0px" y="0px"
	 viewBox="0 0 512 512" style="enable-background:new 0 0 512 512;" xml:space="preserve">
<g>
	<g>
		<rect x="95.17" y="419.5" width="74.04" height="15"/>
	</g>
</g>
<g>
	<g>
		<path d="M256,232c-13.233,0-24,10.767-24,24c0,13.233,10.767,24,24,24c13.233,0,24-10.767,24-24C280,242.767,269.233,232,256,232z
			 M256,265c-4.963,0-9-4.037-9-9s4.037-9,9-9s9,4.037,9,9S260.963,265,256,265z"/>
	</g>
</g>
<g>
	<g>
		<rect x="193.17" y="80.5" width="15" height="15"/>
	</g>
</g>
<g>
	<g>
		<rect x="95.17" y="80.5" width="88" height="15"/>
	</g>
</g>
<g>
	<g>
		<rect x="218.17" y="80.5" width="15" height="15"/>
	</g>
</g>
<g>
	<g>
		<path d="M512,60.661V0h-60.661v22.831H286.327V0h-60.661v22.831H60.661V0H0v60.661h22.831v165.008H0v60.662h22.831v165.008H0V512
			h60.661v-22.831h165.005V512h60.661v-22.831h165.012V512H512v-60.661h-22.838V286.331H512v-60.662h-22.838V60.661H512z
			 M240.666,15h30.661v30.661h-30.661V15z M15,45.661V15h30.661v30.661H15z M15,271.331v-30.662h30.661v30.662H15z M45.661,497H15
			v-30.661h30.661V497z M271.327,497h-30.661v-30.661h30.661V497z M451.339,474.169H286.327v-22.83h-60.661v22.83H60.661v-22.83
			h-22.83V286.331h22.83v-60.662h-22.83V60.661h22.83v-22.83h165.005v22.83h60.661v-22.83h165.012v22.83h22.823v165.008h0h-22.823
			v60.662h22.823v165.008h-22.823V474.169z M497,466.339V497h-30.661v-30.661H497z M497,240.669v30.662h-30.661v-30.662H497z
			 M466.339,45.661V15H497v30.661H466.339z"/>
	</g>
</g>
<g>
	<g>
		<rect x="424.37" y="350.13" width="15" height="15"/>
	</g>
</g>
<g>
	<g>
		<rect x="424.37" y="325.13" width="15" height="15"/>
	</g>
</g>
<g>
	<g>
		<rect x="424.37" y="300.13" width="15" height="15"/>
	</g>
</g>
<g>
	<g>
		<rect x="424.37" y="375.13" width="15" height="15"/>
	</g>
</g>
<g>
	<g>
		<path d="M408.839,45.661H298.827v15h110.012c9.281,0,18.097,2.938,25.495,8.496l9.01-11.992
			C433.327,49.639,421.396,45.661,408.839,45.661z"/>
	</g>
</g>
<g>
	<g>
		<path d="M454.835,68.656l-11.992,9.01c5.558,7.398,8.496,16.214,8.496,25.495v110.008h15V103.161
			C466.339,90.604,462.361,78.673,454.835,68.656z"/>
	</g>
</g>
<g>
	<g>
		<path d="M451.339,298.831v110.008c0,9.281-2.938,18.097-8.496,25.495l11.992,9.01c7.526-10.017,11.504-21.948,11.504-34.505
			V298.831H451.339z"/>
	</g>
</g>
<g>
	<g>
		<path d="M434.334,442.843c-7.398,5.558-16.214,8.496-25.495,8.496H298.827v15h110.012c12.557,0,24.488-3.978,34.505-11.504
			L434.334,442.843z"/>
	</g>
</g>
<g>
	<g>
		<path d="M103.161,451.339c-9.281,0-18.097-2.938-25.495-8.496l-9.01,11.992c10.017,7.526,21.948,11.504,34.505,11.504h110.005v-15
			H103.161z"/>
	</g>
</g>
<g>
	<g>
		<path d="M60.661,408.839V298.831h-15v110.008c0,12.557,3.978,24.488,11.504,34.505l11.992-9.01
			C63.599,426.936,60.661,418.12,60.661,408.839z"/>
	</g>
</g>
<g>
	<g>
		<path d="M57.165,68.656c-7.526,10.017-11.504,21.948-11.504,34.505v110.008h15V103.161c0-9.281,2.938-18.097,8.496-25.495
			L57.165,68.656z"/>
	</g>
</g>
<g>
	<g>
		<path d="M103.161,45.661c-12.557,0-24.488,3.978-34.505,11.504l9.01,11.992c7.398-5.559,16.214-8.496,25.495-8.496h110.005v-15
			H103.161z"/>
	</g>
</g>
<g>
</g>
<g>
</g>
<g>
</g>
<g>
</g>
<g>
</g>
<g>
</g>
<g>
</g>
<g>
</g>
<g>
</g>
<g>
</g>
<g>
</g>
<g>
</g>
<g>
</g>
<g>
</g>
<g>
</g>
</svg>
