<svg height="512pt" viewBox="0 0 512.01298 512" width="512pt" xmlns="http://www.w3.org/2000/svg"><path d="m177.164062 162.226562c-79.699218 92.925782-78.507812 252.5-57.769531 335.699219.460938 1.832031-.289062 3.75-1.863281 4.789063-1.574219 1.039062-3.636719.964844-5.136719-.179688-7.566406-5.554687-14.59375-11.8125-20.988281-18.6875-59.90625-63.828125-76.800781-182.785156-81.324219-262.398437-1.367187-24.320313-1.621093-44.972657-1.535156-59.308594.066406-1.207031.96875-2.203125 2.164063-2.390625 1.191406-.183594 2.355468.492188 2.785156 1.621094 6.996094 20.054687 20.394531 57.175781 31.058594 86.359375 2.136718 6.144531 4.269531 11.859375 6.144531 17.066406.964843 2.753906 3.625 4.546875 6.539062 4.410156 2.914063-.140625 5.390625-2.175781 6.089844-5.007812 11.949219-43.859375 52.3125-77.3125 85.421875-97.707031 7.933594-4.777344 15.445312-8.960938 22.101562-12.289063 2.210938-1.121094 4.910157-.527344 6.445313 1.421875 1.535156 1.953125 1.480469 4.714844-.132813 6.601562zm0 0" fill="#37474f"/><path d="m91.40625 483.847656c-59.90625-63.828125-76.800781-182.785156-81.324219-262.398437 5.632813 15.613281 11.265625 31.058593 15.699219 43.347656.988281 2.753906 3.65625 4.539063 6.582031 4.402344 2.921875-.136719 5.410157-2.164063 6.132813-5 1.550781-5.652344 3.574218-11.160157 6.058594-16.46875 2.136718 6.144531 4.269531 11.859375 6.144531 17.066406.964843 2.753906 3.625 4.546875 6.539062 4.410156 2.914063-.140625 5.390625-2.175781 6.089844-5.007812 11.949219-43.859375 52.3125-77.3125 85.421875-97.707031-72.023438 88.320312-74.582031 232.621093-57.34375 317.355468zm0 0" fill="#607d8b"/><path d="m500.867188 16.535156c-5.007813-7.980468-15.542969-10.390625-23.527344-5.382812l-368.390625 340.992187c-1.210938 15.972657-1.65625 31.734375-1.410157 46.992188l387.945313-359.074219c7.980469-5.007812 10.394531-15.542969 5.382813-23.527344zm0 0" fill="#795548"/><path d="m503.480469 435.207031v68.265625h-349.78125c18.773437 0 34.984375-20.648437 45.738281-39.25 10.707031-18.117187 30.242188-29.167968 51.285156-29.015625zm0 0" fill="#558b30"/><path d="m486.328125 435.207031v68.265625h-332.628906c18.773437 0 34.984375-20.648437 45.738281-39.25 10.707031-18.117187 30.242188-29.167968 51.285156-29.015625zm0 0" fill="#8bc34a"/><path d="m115.058594 512.007812c-2.785156-.011718-5.492188-.90625-7.730469-2.558593-98.152344-71.757813-107.734375-266.820313-107.3164062-347.308594.1328122-5.320313 4.0273432-9.792969 9.2734372-10.664063 5.25-.871093 10.378906 2.105469 12.222656 7.097657 7.679688 21.988281 23.039063 64.390625 35.21875 98.039062 19.148438-58.683593 83.0625-96.339843 110.257813-110.0625 5.847656-2.960937 12.972656-1.382812 17.027344 3.769531 4.050781 5.152344 3.902343 12.449219-.351563 17.433594-77.835937 90.753906-75.632812 249.414063-55.945312 328.101563 1.355468 5.300781-.796875 10.878906-5.359375 13.898437-2.152344 1.460938-4.695313 2.246094-7.296875 2.253906zm-97.46875-313.601562c2.792968 86.058594 18.867187 227.6875 90.941406 290.203125-17.84375-83.628906-17.007812-226.132813 51.90625-319.078125-27.792969 16.117188-76.066406 50.0625-88.839844 96.929688-1.726562 6.445312-7.445312 11.015624-14.113281 11.28125-6.609375.3125-12.632813-3.761719-14.804687-10.011719-7.808594-21.398438-17.167969-47.246094-25.089844-69.324219zm0 0"/><path d="m107.53125 407.671875c-4.652344 0-8.449219-3.730469-8.53125-8.382813-.273438-15.707031.210938-31.792968 1.425781-47.785156.152344-2.148437 1.121094-4.15625 2.703125-5.613281l368.417969-341.003906c.394531-.355469.816406-.679688 1.261719-.960938 11.976562-7.511719 27.769531-3.8984372 35.285156 8.070313 7.332031 11.683594 4.085938 27.078125-7.335938 34.808594l-387.414062 358.585937c-1.578125 1.46875-3.65625 2.28125-5.8125 2.28125zm9.660156-51.558594c-.535156 7.824219-.894531 15.65625-1.074218 23.449219l373.570312-345.761719c.390625-.359375.808594-.679687 1.257812-.957031 3.871094-2.441406 5.128907-7.5 2.851563-11.46875-2.28125-3.96875-7.285156-5.433594-11.34375-3.320312zm0 0"/><path d="m153.707031 512.007812h-34.132812c-4.714844 0-8.535157-3.820312-8.535157-8.535156 0-4.710937 3.820313-8.53125 8.535157-8.53125h34.132812c11.648438 0 25.265625-12.425781 38.339844-34.988281 12.261719-20.738281 34.613281-33.410156 58.710937-33.277344h252.722657c4.710937 0 8.53125 3.820313 8.53125 8.53125 0 4.714844-3.820313 8.535157-8.53125 8.535157h-252.722657c-18.007812-.148438-34.738281 9.273437-43.949218 24.746093-16.734375 28.882813-34.59375 43.519531-53.101563 43.519531zm0 0"/><path d="m341.386719 443.742188c-4.710938 0-8.53125-3.820313-8.53125-8.535157v-110.933593c0-4.710938 3.820312-8.53125 8.53125-8.53125 4.714843 0 8.535156 3.820312 8.535156 8.53125v110.933593c0 4.714844-3.820313 8.535157-8.535156 8.535157zm0 0"/><path d="m341.386719 332.808594c-2.261719 0-4.429688-.902344-6.03125-2.5l-25.601563-25.601563c-3.230468-3.347656-3.1875-8.671875.105469-11.960937 3.292969-3.292969 8.613281-3.339844 11.960937-.105469l25.601563 25.601563c2.4375 2.4375 3.167969 6.109374 1.847656 9.296874-1.320312 3.1875-4.429687 5.269532-7.882812 5.269532zm0 0"/><path d="m341.386719 384.007812c-2.261719 0-4.429688-.898437-6.03125-2.5l-25.601563-25.601562c-3.230468-3.347656-3.1875-8.667969.105469-11.960938 3.292969-3.292968 8.613281-3.339843 11.960937-.105468l25.601563 25.601562c2.4375 2.441406 3.167969 6.109375 1.847656 9.296875-1.320312 3.1875-4.429687 5.269531-7.882812 5.269531zm0 0"/><path d="m341.386719 435.207031c-2.261719 0-4.429688-.898437-6.03125-2.5l-25.601563-25.601562c-3.230468-3.347657-3.1875-8.667969.105469-11.960938s8.613281-3.335937 11.960937-.105469l25.601563 25.601563c2.4375 2.441406 3.167969 6.109375 1.847656 9.296875-1.320312 3.191406-4.429687 5.269531-7.882812 5.269531zm0 0"/><path d="m341.386719 332.808594c-3.449219 0-6.558594-2.082032-7.878907-5.269532-1.320312-3.1875-.59375-6.859374 1.847657-9.296874l25.601562-25.601563c3.347657-3.234375 8.667969-3.1875 11.960938.105469 3.292969 3.289062 3.335937 8.613281.105469 11.960937l-25.601563 25.601563c-1.601563 1.597656-3.769531 2.5-6.035156 2.5zm0 0"/><path d="m341.386719 384.007812c-3.449219 0-6.558594-2.082031-7.878907-5.269531-1.320312-3.1875-.59375-6.855469 1.847657-9.296875l25.601562-25.601562c3.347657-3.234375 8.667969-3.1875 11.960938.105468 3.292969 3.292969 3.335937 8.613282.105469 11.960938l-25.601563 25.601562c-1.601563 1.601563-3.769531 2.5-6.035156 2.5zm0 0"/><path d="m341.386719 435.207031c-3.449219 0-6.558594-2.078125-7.878907-5.269531-1.320312-3.1875-.59375-6.855469 1.847657-9.296875l25.601562-25.601563c3.347657-3.230468 8.667969-3.1875 11.960938.105469s3.335937 8.613281.105469 11.960938l-25.601563 25.601562c-1.601563 1.601563-3.769531 2.5-6.035156 2.5zm0 0"/><path d="m443.746094 443.742188c-4.714844 0-8.535156-3.820313-8.535156-8.535157v-110.933593c0-4.710938 3.820312-8.53125 8.535156-8.53125 4.710937 0 8.53125 3.820312 8.53125 8.53125v110.933593c0 4.714844-3.820313 8.535157-8.53125 8.535157zm0 0"/><path d="m443.746094 332.808594c-2.261719 0-4.433594-.902344-6.035156-2.5l-25.597657-25.601563c-3.234375-3.347656-3.1875-8.671875.101563-11.960937 3.292968-3.292969 8.617187-3.339844 11.964844-.105469l25.597656 25.601563c2.441406 2.4375 3.171875 6.109374 1.851562 9.296874-1.320312 3.1875-4.433594 5.269532-7.882812 5.269532zm0 0"/><path d="m443.746094 384.007812c-2.261719 0-4.433594-.898437-6.035156-2.5l-25.597657-25.601562c-3.234375-3.347656-3.1875-8.667969.101563-11.960938 3.292968-3.292968 8.617187-3.339843 11.964844-.105468l25.597656 25.601562c2.441406 2.441406 3.171875 6.109375 1.851562 9.296875-1.320312 3.1875-4.433594 5.269531-7.882812 5.269531zm0 0"/><path d="m443.746094 435.207031c-2.261719 0-4.433594-.898437-6.035156-2.5l-25.597657-25.601562c-3.234375-3.347657-3.1875-8.667969.101563-11.960938 3.292968-3.292969 8.617187-3.335937 11.964844-.105469l25.597656 25.601563c2.441406 2.441406 3.171875 6.109375 1.851562 9.296875-1.320312 3.191406-4.433594 5.269531-7.882812 5.269531zm0 0"/><path d="m443.746094 332.808594c-3.449219 0-6.5625-2.082032-7.882813-5.269532-1.320312-3.1875-.589843-6.859374 1.847657-9.296874l25.601562-25.601563c3.347656-3.234375 8.671875-3.1875 11.960938.105469 3.292968 3.289062 3.339843 8.613281.105468 11.960937l-25.601562 25.601563c-1.597656 1.597656-3.769532 2.5-6.03125 2.5zm0 0"/><path d="m443.746094 384.007812c-3.449219 0-6.5625-2.082031-7.882813-5.269531-1.320312-3.1875-.589843-6.855469 1.847657-9.296875l25.601562-25.601562c3.347656-3.234375 8.671875-3.1875 11.960938.105468 3.292968 3.292969 3.339843 8.613282.105468 11.960938l-25.601562 25.601562c-1.597656 1.601563-3.769532 2.5-6.03125 2.5zm0 0"/><path d="m443.746094 435.207031c-3.449219 0-6.5625-2.078125-7.882813-5.269531-1.320312-3.1875-.589843-6.855469 1.847657-9.296875l25.601562-25.601563c3.347656-3.230468 8.671875-3.1875 11.960938.105469 3.292968 3.292969 3.339843 8.613281.105468 11.960938l-25.601562 25.601562c-1.597656 1.601563-3.769532 2.5-6.03125 2.5zm0 0"/></svg>