<svg height="512pt" viewBox="0 0 512 512" width="512pt" xmlns="http://www.w3.org/2000/svg"><path d="m331 92h150v150h-150zm0 0" fill="#deecf1"/><path d="m406 92h75v150h-75zm0 0" fill="#c6e2e7"/><path d="m391 182h30v49.5h-30zm0 0" fill="#5a5a5a"/><path d="m512 122h-211l30-60h150zm0 0" fill="#c83c50"/><path d="m406 182h15v49.5h-15zm0 0" fill="#444"/><path d="m512 122h-106v-60h75zm0 0" fill="#b03244"/><path d="m512 210.5v90.898438l-106 29.398437-147.898438 41.402344-51.902343-73.800781c59.703125-42.300782 128.402343-70.199219 199.800781-81.898438 29.699219-5.101562 61-7.199219 91.300781-6.300781zm0 0" fill="#a9da40"/><path d="m512 210.5v90.898438l-106 29.398437v-114.300781c29.699219-5.097656 61-7.199219 91.300781-6.296875zm0 0" fill="#90c225"/><path d="m512 301.398438v90l-106 27.902343-96.597656 25.5-51.300782-72.601562c44.699219-31.199219 95.097657-52.800781 147.898438-63.300781 34.199219-7.5 70.601562-9.898438 106-7.5zm0 0" fill="#c9e36a"/><path d="m512 301.398438v90l-106 27.902343v-110.402343c34.199219-7.5 70.601562-9.898438 106-7.5zm0 0" fill="#a9da40"/><path d="m512 391.398438v120.601562h-155.199219l-30.300781-42.898438-17.097656-24.300781c28.796875-19.800781 61.796875-34.800781 96.597656-43.800781 25.199219-7.199219 51.597656-10.800781 77.699219-10.800781zm0 0" fill="#a9da40"/><path d="m483.699219 390.199219 28.300781 1.199219v120.601562h-106v-111c25.199219-7.199219 51.597656-10.800781 77.699219-10.800781zm0 0" fill="#90c225"/><path d="m121 0h30v47h-30zm0 0" fill="#fed2a4"/><path d="m121 167h30v45h-30zm0 0" fill="#fed2a4"/><path d="m72.351562 22.140625 31.832032 31.832031-21.210938 21.210938-31.832031-31.832032zm0 0" fill="#fed2a4"/><path d="m189.027344 138.8125 31.832031 31.832031-21.210937 21.210938-31.832032-31.832031zm0 0" fill="#ffbd86"/><path d="m31 92h45v30h-45zm0 0" fill="#fed2a4"/><path d="m196 92h45v30h-45zm0 0" fill="#ffbd86"/><path d="m82.972656 138.816406 21.210938 21.210938-31.832032 31.828125-21.207031-21.210938zm0 0" fill="#fed2a4"/><g fill="#ffbd86"><path d="m199.644531 22.140625 21.210938 21.210937-31.828125 31.832032-21.210938-21.210938zm0 0"/><path d="m136 0h15v47h-15zm0 0"/><path d="m136 167h15v45h-15zm0 0"/><path d="m136 32c-41.398438 0-75 33.601562-75 75s33.601562 75 75 75 75-33.601562 75-75-33.601562-75-75-75zm0 0"/></g><path d="m211 107c0 41.398438-33.601562 75-75 75v-150c41.398438 0 75 33.601562 75 75zm0 0" fill="#f6a96c"/><path d="m356.800781 512h-95.101562l-261.699219-179.402344v-90c45.601562-1.796875 91.902344 4.503906 136 20.703125 24.902344 9.296875 48.601562 21 70.199219 35.097657 65.402343 42.601562 114.601562 105.902343 139.800781 181.5zm0 0" fill="#90c225"/><path d="m130.828125 358.878906c-41.167969-20.441406-86.402344-29-130.828125-26.40625v90.496094l164.34375 89.03125h97.21875c-21.035156-66.351562-67.097656-121.511719-130.734375-153.121094zm0 0" fill="#a9da40"/><path d="m73.613281 432.3125c-23.734375-8.746094-49.363281-11.621094-73.613281-9.34375v89.03125h164.34375c-19.015625-36.175781-50.730469-64.964844-90.730469-79.6875zm0 0" fill="#90c225"/></svg>