<svg height="512pt" viewBox="0 -49 512 512" width="512pt" xmlns="http://www.w3.org/2000/svg"><path d="m463 207c0 114.324219-92.675781 207-207 207s-207-92.675781-207-207 92.675781-207 207-207 207 92.675781 207 207zm0 0" fill="#f0c48a"/><path d="m339.378906 33.394531-166.757812 67.417969-166.757813-67.417969v279.792969l166.757813 67.417969 166.757812-67.417969 166.757813 67.417969v-279.792969zm0 0" fill="#fff"/><path d="m23.210938 64.277344v234.3125l149.511718 60.023437 167.667969-67.183593 148.261719 61.179687v-236.710937l-148.417969-59.945313-166.421875 67.113281zm0 0" fill="#7babf1"/><path d="m26.953125 207.28125s29.789063 76.636719 15.722656 99.121094c-19.464843-7.8125-19.464843-7.8125-19.464843-7.8125zm0 0" fill="#a4cff2"/><path d="m488.652344 262.425781v-146.527343l-148.417969-59.945313-166.421875 67.113281-105.261719-41.089844c-36.1875 76.777344 46.539063 156.5625 46.539063 156.5625 40.839844 43.753907 78.433594 75.707032 112.800781 97.964844l112.5-45.074218 105.566406 43.558593c18.742188-20.035156 32.964844-45.378906 42.695313-72.5625zm0 0" fill="#a4cff2"/><path d="m280.71875 106.03125c-21.484375 19.351562-41.667969 9.785156-61.4375-1.300781l-45.46875 18.335937-29.742188-11.609375c-36.003906 53.996094 26.082032 113.878907 26.082032 113.878907 45.320312 48.554687 84.675781 75.449218 118.121094 86.976562l52.117187-20.882812 33.402344 13.785156c45.140625-29.449219 63.46875-99.234375 55.398437-148.238282-15.796875-95.910156-101.089844-93.636718-148.472656-50.945312zm0 0" fill="#d3e6f8"/><path d="m172.621094 386.46875c-.746094 0-1.492188-.140625-2.195313-.425781l-166.761719-67.421875c-2.214843-.894532-3.664062-3.042969-3.664062-5.433594v-279.792969c0-1.949219.96875-3.773437 2.585938-4.863281 1.613281-1.089844 3.667968-1.304688 5.472656-.570312l164.5625 66.53125 164.5625-66.53125c1.40625-.570313 2.984375-.570313 4.394531 0l166.757813 67.417968c2.214843.894532 3.664062 3.046875 3.664062 5.433594v279.796875c0 1.949219-.96875 3.769531-2.585938 4.859375-1.613281 1.089844-3.667968 1.304688-5.472656.574219l-164.5625-66.53125-164.5625 66.53125c-.703125.285156-1.449218.425781-2.195312.425781zm-160.894532-77.234375 160.894532 65.050781 164.558594-66.53125c1.410156-.570312 2.988281-.570312 4.394531 0l158.699219 64.160156v-267.148437l-160.894532-65.046875-164.5625 66.527344c-1.410156.570312-2.984375.570312-4.394531 0l-158.695313-64.160156zm0 0" fill="#4c4372"/><path d="m228.28125 211.398438s-31.839844-30.710938-10.613281-57.265626c21.226562-26.558593 40.941406 20.488282 63.683593 0 22.746094-20.492187 63.683594-21.582031 71.265626 24.453126 7.582031 46.03125-33.359376 130.273437-124.335938 32.8125zm0 0" fill="#e8677d"/><path d="m312.265625 287.0625c-26.78125 0-63.484375-15.113281-111.082031-66.070312-1.355469-1.332032-12.417969-12.449219-20.019532-28.203126-10.957031-22.703124-9.40625-43.894531 4.488282-61.273437 18.8125-23.535156 38.160156-12.578125 53.710937-3.773437 15.695313 8.890624 25.917969 13.796874 37.816407 3.078124 20.636718-18.59375 48.574218-25.488281 71.167968-17.566406 21.234375 7.441406 35.519532 27.28125 40.226563 55.863282 6.449219 39.152343-9.847657 92.847656-47.417969 111.328124-7.882812 3.875-17.488281 6.617188-28.890625 6.617188zm-101.207031-157.902344c-5.570313 0-10.703125 2.738282-16.25 9.675782-11.03125 13.800781-12.070313 30.238281-3.085938 48.859374 7.035156 14.578126 17.617188 24.871094 17.722656 24.972657.074219.074219.144532.144531.214844.21875 27.042969 28.972656 52.425782 48.121093 75.445313 56.917969 19.089843 7.292968 36.207031 7.332031 50.875.117187 31.714843-15.597656 46.820312-63.734375 41.027343-98.902344-4.039062-24.503906-15.289062-40.65625-32.539062-46.703125-18.328125-6.421875-42.214844-.308594-59.445312 15.214844-18.777344 16.917969-36.886719 6.65625-51.441407-1.585938-8.988281-5.089843-16.054687-8.785156-22.523437-8.785156zm0 0" fill="#4c4372"/><path d="m256.636719 204.597656s-15.015625-14.480468-5.003907-27.003906c10.007813-12.523438 19.304688 9.664062 30.027344 0 10.726563-9.660156 30.03125-10.175781 33.605469 11.53125 3.578125 21.707031-15.730469 61.433594-58.628906 15.472656zm0 0" fill="#fd919e"/><g fill="#4c4372"><path d="m288.273438 318.175781c-.644532 0-1.292969-.109375-1.910157-.320312-37.019531-12.761719-77.527343-42.507813-120.398437-88.414063-1.609375-1.574218-16.628906-16.558594-27.582032-38.144531-15.433593-30.417969-15.152343-59.148437.8125-83.09375 1.527344-2.289063 4.445313-3.207031 7.007813-2.207031l27.574219 10.765625 43.3125-17.46875c1.648437-.664063 3.511718-.546875 5.0625.324219 19.875 11.148437 36.523437 18.378906 54.644531 2.058593l3.921875 4.355469-3.921875-4.355469c13.882813-12.511719 30.558594-21.585937 48.222656-26.25 18.554688-4.902343 36.878907-4.507812 52.988281 1.140625 21.246094 7.445313 48.375 27.277344 56.96875 79.453125 8.5 51.613281-10.863281 123.367188-57.980468 154.101563-1.617188 1.058594-3.652344 1.246094-5.4375.511718l-31.199219-12.875-49.902344 19.996094c-.703125.277344-1.441406.421875-2.183593.421875zm-141.785157-199.480469c-11.117187 19.53125-10.378906 42.058594 2.214844 67.03125 10.414063 20.65625 25.371094 35.246094 25.523437 35.390626.070313.070312.140626.144531.210938.21875 40.78125 43.691406 79.027344 72.179687 113.703125 84.710937l50.070313-20.058594c1.417968-.570312 3.003906-.5625 4.417968.019531l30.484375 12.582032c18.496094-13.066406 33.625-34.964844 42.777344-62.039063 8.746094-25.863281 11.484375-54.519531 7.515625-78.625-6.0625-36.8125-23.105469-61.121093-49.277344-70.296875-27.660156-9.691406-63.621094-.550781-89.488281 22.753906-24.582031 22.148438-48.917969 10.203126-65.769531.832032l-42.867188 17.289062c-1.386718.558594-2.933594.566406-4.324218.023438zm0 0"/><path d="m256.9375 330.730469c-.964844 0-1.921875-.238281-2.789062-.707031-36.113282-19.53125-74.761719-51.214844-114.878907-94.179688-1.75-1.707031-19.160156-19.011719-32.550781-44.265625-18.6875-35.226563-20.28125-68.882813-4.613281-97.324219 1.421875-2.578125 4.53125-3.703125 7.269531-2.636718l66.570312 25.988281c3.015626 1.179687 4.507813 4.578125 3.328126 7.59375-1.175782 3.015625-4.574219 4.507812-7.589844 3.328125l-61.625-24.054688c-27.644532 59.226563 36.796875 122.398438 37.46875 123.046875.074218.070313.144531.144531.214844.21875 38.390624 41.125 75.246093 71.613281 109.582031 90.660157l80.886719-32.410157c1.421874-.566406 3.003906-.558593 4.417968.023438l65.8125 27.15625c43.484375-41.144531 58.359375-115.210938 50.132813-165.164063-2.699219-16.386718-7.195313-30.953125-13.378907-43.335937l-107.152343-43.28125c-3.003907-1.210938-4.453125-4.628907-3.242188-7.628907 1.214844-3.003906 4.632813-4.453124 7.632813-3.242187l109.179687 44.097656c1.292969.523438 2.355469 1.488281 3 2.71875 7.265625 13.890625 12.488281 30.296875 15.53125 48.761719 4.800781 29.15625 2.335938 62.742188-6.941406 94.570312-10.171875 34.894532-27.339844 63.84375-49.644531 83.722657-1.679688 1.496093-4.0625 1.898437-6.136719 1.042969l-67.0625-27.671876-81.242187 32.550782c-.703126.285156-1.441407.421875-2.179688.421875zm0 0"/><path d="m227.890625 342.367188c-1.113281 0-2.222656-.316407-3.1875-.941407-36.199219-23.445312-74.488281-56.679687-113.800781-98.78125-1.894532-1.84375-21.851563-21.628906-37.796875-50.78125-22.078125-40.367187-25.484375-79.230469-9.855469-112.386719 1.3125-2.789062 4.5625-4.082031 7.433594-2.960937l103.09375 40.246094 164.265625-66.246094c1.40625-.570313 2.980469-.566406 4.386719 0l148.417968 59.949219c2.21875.894531 3.667969 3.042968 3.667969 5.433594v146.527343c0 .671875-.117187 1.339844-.34375 1.972657-10.476563 29.273437-25.667969 55.070312-43.933594 74.59375-1.667969 1.78125-4.261719 2.347656-6.519531 1.417968l-103.359375-42.652344-110.289063 44.1875c-.703124.285157-1.441406.421876-2.179687.421876zm-156.214844-252.878907c-28.234375 70.648438 46.707031 144.082031 47.484375 144.832031.074219.070313.144532.144532.214844.21875 37.773438 40.464844 74.484375 72.542969 109.167969 95.390626l109.667969-43.941407c1.417968-.570312 3.003906-.5625 4.417968.023438l101.761719 41.992187c15.785156-17.773437 29.007813-40.691406 38.398437-66.601562v-141.546875l-142.554687-57.582031-164.230469 66.230468c-1.386718.558594-2.933594.566406-4.324218.023438zm416.976563 172.9375h.011718zm0 0"/><path d="m172.71875 364.472656c-.742188 0-1.480469-.140625-2.183594-.421875l-149.507812-60.019531c-2.222656-.894531-3.679688-3.046875-3.679688-5.441406v-234.3125c0-1.9375.957032-3.75 2.558594-4.839844 1.597656-1.09375 3.632812-1.328125 5.4375-.621094l148.433594 57.945313 164.265625-66.246094c1.40625-.566406 2.980469-.566406 4.386719 0l148.417968 59.949219c2.214844.894531 3.667969 3.046875 3.667969 5.433594v236.710937c0 1.957031-.976563 3.785156-2.601563 4.871094-1.628906 1.089843-3.691406 1.292969-5.5.546875l-146.058593-60.269532-165.457031 66.296876c-.699219.28125-1.4375.417968-2.179688.417968zm-143.644531-69.847656 143.648437 57.671875 165.488282-66.308594c1.417968-.570312 3.003906-.5625 4.417968.019531l140.160156 57.839844v-223.992187l-142.554687-57.582031-164.230469 66.230468c-1.386718.558594-2.929687.566406-4.324218.023438l-142.605469-55.667969zm0 0"/><path d="m84.109375 328.898438c-3.21875 0-5.839844-2.597657-5.863281-5.824219-.523438-80.148438-59.714844-203.386719-60.3125-204.621094-1.410156-2.914063-.191406-6.421875 2.722656-7.832031 2.917969-1.410156 6.421875-.191406 7.832031 2.726562.152344.3125 15.394531 31.925782 30.476563 73.207032 20.347656 55.691406 30.777344 101.59375 31.007812 136.445312.019532 3.238281-2.585937 5.878906-5.824218 5.898438-.011719 0-.027344 0-.039063 0zm0 0"/><path d="m194.671875 355.679688c-1.460937 0-2.917969-.542969-4.054687-1.628907l-73.574219-70.503906c-1.769531-1.699219-3.605469-.925781-4.3125-.515625-.707031.414062-2.28125 1.628906-1.679688 4.003906l12.1875 47.988282c.796875 3.136718-1.097656 6.328124-4.238281 7.125-3.136719.800781-6.328125-1.101563-7.125-4.238282l-12.1875-47.984375c-1.703125-6.699219 1.167969-13.542969 7.140625-17.023437 5.96875-3.480469 13.335937-2.605469 18.328125 2.175781l73.570312 70.507813c2.339844 2.238281 2.417969 5.949218.175782 8.285156-1.148438 1.203125-2.6875 1.808594-4.230469 1.808594zm0 0"/><path d="m48.800781 314.722656c-.132812 0-.265625-.003906-.398437-.011718-3.226563-.21875-5.671875-3.011719-5.457032-6.242188 3.0625-45.898438-24.773437-106.871094-25.054687-107.480469-1.355469-2.941406-.074219-6.421875 2.867187-7.777343 2.9375-1.359376 6.421876-.074219 7.777344 2.863281 1.203125 2.601562 29.371094 64.273437 26.109375 113.175781-.207031 3.097656-2.785156 5.472656-5.84375 5.472656zm0 0"/><path d="m291.972656 231.722656c-9.816406 0-22.964844-5.3125-39.523437-23.015625-6.519531-6.363281-15.890625-21.644531-5.398438-34.773437 8.308594-10.390625 17.703125-5.070313 22.75-2.210938 5.394531 3.054688 6.265625 3.023438 7.9375 1.515625 7.871094-7.089843 18.644531-9.675781 27.445313-6.589843 4.882812 1.710937 13.4375 6.785156 15.867187 21.527343 2.359375 14.320313-3.78125 34.046875-17.8125 40.949219-3.078125 1.515625-6.835937 2.597656-11.265625 2.597656zm-33.429687-52.195312c-.953125 0-1.464844.640625-2.332031 1.730468-6.597657 8.253907 4.382812 19.011719 4.496093 19.121094.074219.070313.144531.144532.214844.21875 14.964844 16.03125 28.15625 22.425782 37.144531 18.003906 8.785156-4.320312 13.066406-18.5 11.414063-28.523437-.753907-4.601563-2.789063-10.480469-8.175781-12.367187-4.742188-1.664063-11.058594.039062-15.71875 4.238281-8.308594 7.484375-16.601563 2.785156-21.5625-.023438-2.960938-1.675781-4.46875-2.398437-5.480469-2.398437zm0 0"/><path d="m303.203125 262.332031c-19.203125 0-45.382813-10.734375-79.105469-46.824219-12.339844-11.972656-30.378906-40.804687-11.007812-65.035156 14.117187-17.660156 29.003906-9.230468 39.875-3.074218 10.628906 6.019531 17.003906 9.097656 24.464844 2.378906 14.929687-13.453125 35.199218-18.421875 51.628906-12.664063 15.515625 5.4375 25.9375 19.828125 29.34375 40.519531 4.621094 28.054688-7.136719 66.574219-34.1875 79.878907-5.738282 2.820312-12.726563 4.820312-21.011719 4.820312zm-70.90625-110.726562c-3.46875 0-6.542969 1.796875-10.050781 6.1875-7.222656 9.03125-7.921875 19.84375-2.074219 32.125 4.75 9.984375 12.113281 17.195312 12.1875 17.265625.070313.070312.144531.144531.207031.214844 18.769532 20.105468 36.339844 33.375 52.21875 39.445312 12.90625 4.929688 24.429688 4.980469 34.253906.148438 17.378907-8.550782 32.695313-37.695313 27.792969-67.457032-2.71875-16.5-10.203125-27.34375-21.652343-31.355468-12.253907-4.296876-28.292969-.15625-39.90625 10.308593-14.097657 12.699219-27.964844 4.847657-38.089844-.886719-6.339844-3.59375-10.875-5.996093-14.886719-5.996093zm0 0"/></g></svg>